<svg width="24" height="24" viewBox="0 0 24 24" fill="none" xmlns="http://www.w3.org/2000/svg">
<path d="M10.249 1.64618C10.6376 1.58843 11.0334 1.68547 11.3513 1.91644C11.6691 2.14741 11.8837 2.49387 11.9488 2.88134C12.0139 3.26882 11.9243 3.66637 11.6994 3.98853C11.4745 4.3107 11.1322 4.53175 10.746 4.60418C8.99897 4.90046 7.41326 5.80573 6.26996 7.15953C5.12666 8.51333 4.49963 10.2282 4.5 12.0002C4.5 13.9893 5.29018 15.897 6.6967 17.3035C8.10322 18.71 10.0109 19.5002 12 19.5002V22.5002C6.201 22.5002 1.5 17.8002 1.5 12.0002C1.5 6.85518 5.226 2.49018 10.249 1.64618Z" fill="url(#paint0_linear_675_25)"/>
<path d="M16.892 4.29811C17.0235 4.15136 17.1827 4.03197 17.3604 3.94676C17.5381 3.86155 17.7309 3.8122 17.9277 3.80152C18.1245 3.79084 18.3214 3.81904 18.5073 3.88452C18.6932 3.95 18.8643 4.05146 19.011 4.18311C20.11 5.16714 20.9888 6.37209 21.59 7.71914C22.1913 9.06618 22.5013 10.525 22.5 12.0001C22.5 17.8001 17.799 22.5001 12 22.5001V19.5001C13.5182 19.5001 15.0006 19.0394 16.2513 18.1789C17.502 17.3184 18.4621 16.0985 19.0047 14.6806C19.5473 13.2628 19.6469 11.7136 19.2902 10.2379C18.9335 8.76228 18.1373 7.42961 17.007 6.41611C16.7109 6.15048 16.5325 5.77812 16.5109 5.38093C16.4893 4.98374 16.6264 4.59424 16.892 4.29811Z" fill="url(#paint1_linear_675_25)"/>
<defs>
<linearGradient id="paint0_linear_675_25" x1="526.5" y1="111.637" x2="526.5" y2="1917.38" gradientUnits="userSpaceOnUse">
<stop stop-color="white"/>
<stop offset="1" stop-opacity="0.55"/>
</linearGradient>
<linearGradient id="paint1_linear_675_25" x1="537" y1="288.799" x2="537" y2="1633.57" gradientUnits="userSpaceOnUse">
<stop stop-opacity="0"/>
<stop offset="1" stop-opacity="0.55"/>
</linearGradient>
</defs>
</svg>
